# xmcd
#
# Track frame offsets:
#   150
#   16219
#   32484
#   49956
#   58852
#   83177
#   97998
#   114261
#   133739
#   155485
#   171242
#   189995
#   203795
#   220816
#   234312
#   252934
#   273123
#   293026
#   324860
#
# Disc length: 4557 seconds
#
# Revision: 0
# Processed by: cddbd v1.5.1PL0 Copyright (c) Steve Scherf et al.
# Submitted via: uFREEDB ActiveX Control 1.5
#
DISCID=fe11cb13
DTITLE=ggg - ggg
DYEAR=2005
DGENRE=Blues
TTITLE0=vhdsfv
TTITLE1=vdgdbvvbcv
TTITLE2=vsvbcrtyre
TTITLE3=vfdhhhfgjhbvn
TTITLE4=xzdfgh
TTITLE5=vfghsdhda
TTITLE6=sjtfg
TTITLE7=djdg
TTITLE8=ffdy
TTITLE9=rjght
TTITLE10=yjrt
TTITLE11=yxdy
TTITLE12=dhgf
TTITLE13=tha
TTITLE14=dsfgdf
TTITLE15=dfgs
TTITLE16=ghdd
TTITLE17=ss
TTITLE18=ahgf
EXTD=gggg
EXTT0=
EXTT1=
EXTT2=
EXTT3=
EXTT4=
EXTT5=
EXTT6=
EXTT7=
EXTT8=
EXTT9=
EXTT10=
EXTT11=
EXTT12=
EXTT13=
EXTT14=
EXTT15=
EXTT16=
EXTT17=
EXTT18=
PLAYORDER=
